<?xml version="1.0" encoding="UTF-8" standalone="no"?>
<!-- Created with Inkscape (http://www.inkscape.org/) -->

<svg
   xmlns:dc="http://purl.org/dc/elements/1.1/"
   xmlns:cc="http://creativecommons.org/ns#"
   xmlns:rdf="http://www.w3.org/1999/02/22-rdf-syntax-ns#"
   xmlns:svg="http://www.w3.org/2000/svg"
   xmlns="http://www.w3.org/2000/svg"
   xmlns:sodipodi="http://sodipodi.sourceforge.net/DTD/sodipodi-0.dtd"
   xmlns:inkscape="http://www.inkscape.org/namespaces/inkscape"
   width="744.09448819"
   height="1052.3622047"
   id="svg4030"
   version="1.1"
   inkscape:version="0.48.4 r9939"
   sodipodi:docname="New document 8">
  <defs
     id="defs4032" />
  <sodipodi:namedview
     id="base"
     pagecolor="#000000"
     bordercolor="#666666"
     borderopacity="1.0"
     inkscape:pageopacity="0"
     inkscape:pageshadow="2"
     inkscape:zoom="0.48"
     inkscape:cx="-70.714286"
     inkscape:cy="520"
     inkscape:document-units="px"
     inkscape:current-layer="layer4"
     showgrid="false"
     inkscape:window-width="1252"
     inkscape:window-height="529"
     inkscape:window-x="1501"
     inkscape:window-y="840"
     inkscape:window-maximized="0" />
  <metadata
     id="metadata4035">
    <rdf:RDF>
      <cc:Work
         rdf:about="">
        <dc:format>image/svg+xml</dc:format>
        <dc:type
           rdf:resource="http://purl.org/dc/dcmitype/StillImage" />
        <dc:title></dc:title>
      </cc:Work>
    </rdf:RDF>
  </metadata>
  <g
     inkscape:groupmode="layer"
     id="layer4"
     inkscape:label="Layer">
    <rect
       style="fill:#ff7f2a;fill-opacity:1;stroke:none;stroke-width:18;stroke-miterlimit:4;stroke-dasharray:none"
       id="rect4581"
       width="634.28571"
       height="642.85712"
       x="54.285713"
       y="189.50504" />
  </g>
  <g
     inkscape:label="Layer 1"
     inkscape:groupmode="layer"
     id="layer1">
    <path
       style="opacity:1;fill:#ffffff;stroke:#000000;stroke-width:18;stroke-miterlimit:4;display:inline;fill-opacity:1"
       d="m 508.88556,532.36218 c 0,73.94295 -59.94261,133.88556 -133.88556,133.88556 -73.94295,0 -133.88556,-59.94261 -133.88556,-133.88556 0,-73.94295 59.94261,-133.88556 133.88556,-133.88556 73.94295,0 133.88556,59.94261 133.88556,133.88556 z"
       id="path3974"
       inkscape:connector-curvature="0" />
    <path
       style="fill:#000000;fill-opacity:1;stroke:#000000;stroke-width:3.34622335px;stroke-linecap:butt;stroke-linejoin:miter;stroke-opacity:1"
       d="m 345.10103,464.62614 70.97681,9.22149 c 2.44954,0.24327 4.80939,2.50606 4.28308,5.68302 L 408.12355,584.3983 c -0.48142,3.19819 -2.88215,4.87542 -5.40485,4.50352 l -33.44883,-4.39632 c 4.41678,2.89218 8.8564,2.66704 6.84466,8.70001 0,0 -7.47544,2.99097 -10.43312,4.21699 -3.30692,1.37087 -8.96367,7.95398 -14.48759,13.12227 -5.85225,5.47549 -14.89729,23.03404 -20.87962,33.47151 -5.4516,9.51154 0.82069,-2.72751 -4.97629,9.88677 -17.28184,-13.8725 -18.56723,-6.11286 -31.35332,-18.07105 0,0 -3.21569,2.31781 10.83507,-14.44052 20.12148,-23.99888 42.98297,-33.77122 42.98297,-33.77122 0,0 13.28283,-3.32147 18.02525,-4.09385 l -34.08598,-3.8461 c -3.0427,-0.48425 -4.72449,-2.30549 -4.28308,-5.683 l 12.23737,-104.86764 c 0.38557,-2.5557 2.36465,-4.89602 5.40484,-4.50353 z m 3.67122,10.8299 -11.01364,94.68111 61.28887,7.93477 11.01365,-94.68111 z m 5.40484,19.19355 45.38029,5.89747 -3.67122,23.6971 -5.20088,-1.28673 -5.71079,-0.96503 c -0.68932,3.5768 -1.35395,7.28762 -2.03955,11.04433 -1.81218,10.8661 -3.18687,18.83528 -3.97715,23.91155 l -17.64222,-2.35899 c 0.64216,-10.78645 1.15119,-18.88241 1.52967,-24.44767 0.30186,-5.75452 0.48378,-9.42823 0.50988,-10.93713 -2.90396,-0.29748 -5.02433,-0.44486 -6.32265,-0.53611 -2.11871,-0.0412 -3.62238,-0.13826 -4.58901,-0.10697 l 1.73363,-23.91155 z"
       id="path2997-4"
       inkscape:connector-curvature="0"
       sodipodi:nodetypes="ccccccccssccsccccccccccccccccccccccccc" />
  </g>
</svg>
