<?xml version="1.0" encoding="UTF-8" standalone="no"?>
<!-- Created with Inkscape (http://www.inkscape.org/) -->

<svg
   xmlns:dc="http://purl.org/dc/elements/1.1/"
   xmlns:cc="http://creativecommons.org/ns#"
   xmlns:rdf="http://www.w3.org/1999/02/22-rdf-syntax-ns#"
   xmlns:svg="http://www.w3.org/2000/svg"
   xmlns="http://www.w3.org/2000/svg"
   xmlns:sodipodi="http://sodipodi.sourceforge.net/DTD/sodipodi-0.dtd"
   xmlns:inkscape="http://www.inkscape.org/namespaces/inkscape"
   width="744.09448819"
   height="1052.3622047"
   id="svg4684"
   version="1.1"
   inkscape:version="0.48.4 r9939"
   sodipodi:docname="New document 15">
  <defs
     id="defs4686" />
  <sodipodi:namedview
     id="base"
     pagecolor="#ffffff"
     bordercolor="#666666"
     borderopacity="1.0"
     inkscape:pageopacity="0.0"
     inkscape:pageshadow="2"
     inkscape:zoom="1.16"
     inkscape:cx="335.61467"
     inkscape:cy="496.86965"
     inkscape:document-units="px"
     inkscape:current-layer="layer1"
     showgrid="false"
     inkscape:window-width="1071"
     inkscape:window-height="771"
     inkscape:window-x="1480"
     inkscape:window-y="598"
     inkscape:window-maximized="0" />
  <metadata
     id="metadata4689">
    <rdf:RDF>
      <cc:Work
         rdf:about="">
        <dc:format>image/svg+xml</dc:format>
        <dc:type
           rdf:resource="http://purl.org/dc/dcmitype/StillImage" />
        <dc:title></dc:title>
      </cc:Work>
    </rdf:RDF>
  </metadata>
  <g
     inkscape:label="Layer 1"
     inkscape:groupmode="layer"
     id="layer1">
    <path
       style="fill:#000000;fill-opacity:1;stroke:#000000;stroke-width:1;stroke-linecap:butt;stroke-linejoin:miter;stroke-miterlimit:1;stroke-opacity:1;stroke-dasharray:none"
       d="M 371.875 376.5625 C 303.44685 377.14234 240.05918 428.67973 223.625 494.84375 C 211.0074 544.48829 225.76135 599.28525 259.75 637.1875 C 294.22057 677.38682 350.60946 695.6929 402.53125 686.0625 C 442.7808 679.25851 480.15898 656.48299 503 622.40625 C 537.82646 573.49937 541.55807 503.15413 509.125 452.3125 C 481.57146 406.37987 429.08126 375.61244 375.125 376.5625 C 374.03646 376.54588 372.96116 376.5533 371.875 376.5625 z M 375 398.46875 C 448.94295 398.46875 508.875 458.43205 508.875 532.375 C 508.875 606.31795 448.94295 666.25 375 666.25 C 358.58744 666.25 342.87439 663.27902 328.34375 657.875 C 331.80498 653.08249 334.58886 650.45516 339.875 645.75 C 347.85831 638.64412 356.03325 629.60356 360.8125 627.71875 C 365.08701 626.0331 375.875 621.9375 375.875 621.9375 C 378.78242 613.64277 372.38325 613.94521 366 609.96875 L 414.34375 616 C 417.98962 616.51133 421.46049 614.20969 422.15625 609.8125 L 439.84375 465.625 C 440.60438 461.257 437.16514 458.14697 433.625 457.8125 L 331.0625 445.125 C 326.66874 444.58536 323.80724 447.82992 323.25 451.34375 L 305.5625 595.5 C 304.92457 600.14373 307.35261 602.67795 311.75 603.34375 L 361.03125 608.625 C 342.74882 610.25838 325.53125 619.8125 325.53125 619.8125 C 325.53125 619.8125 309.53051 629.1624 296.53125 640.84375 C 262.95863 616.51634 241.125 577.00517 241.125 532.375 C 241.125 458.43205 301.05705 398.46875 375 398.46875 z M 336.375 460.03125 L 424.9375 470.9375 L 409.03125 601.125 L 320.4375 590.21875 L 336.375 460.03125 z M 344.1875 486.40625 L 341.6875 519.28125 C 343.0845 519.23823 345.25049 519.3808 348.3125 519.4375 C 350.18887 519.56296 353.24062 519.7785 357.4375 520.1875 C 357.39978 522.26209 357.15501 527.30686 356.71875 535.21875 C 356.17177 542.87042 355.42806 554.01347 354.5 568.84375 L 380 572.0625 C 381.14213 565.08314 383.13099 554.12729 385.75 539.1875 C 386.74085 534.0224 387.69128 528.91774 388.6875 524 L 396.9375 525.34375 L 404.46875 527.09375 L 409.75 494.53125 L 344.1875 486.40625 z "
       id="path2997-4" />
  </g>
</svg>
